# MagicaVoxel @ Ephtracy

# group
g DroneBody

# material
mtllib DroneBody.mtl
usemtl palette

# normals
vn -1 0 0
vn 1 0 0
vn 0 0 1
vn 0 0 -1
vn 0 -1 0
vn 0 1 0

# texcoords
vt 0.908203 0.5
vt 0.939453 0.5
vt 0.943359 0.5
vt 0.970703 0.5
vt 0.982422 0.5

# verts
v -4 0 6.5
v -4 0 -6.5
v -4 1 5.5
v -4 1 -6.5
v -4 1 -8.5
v -4 2 -8.5
v -4 2 -9.5
v -4 3 4.5
v -4 3 -7.5
v -4 4 4.5
v -4 4 -7.5
v -4 6 -6.5
v -4 6 -8.5
v -4 6 -9.5
v -4 7 5.5
v -4 7 -6.5
v -4 7 -8.5
v -4 8 6.5
v -4 8 -6.5
v -3 0 -6.5
v -3 0 -8.5
v -3 1 9.5
v -3 1 8.5
v -3 1 -6.5
v -3 1 -8.5
v -3 1 -9.5
v -3 2 8.5
v -3 2 7.5
v -3 2 -8.5
v -3 2 -9.5
v -3 6 8.5
v -3 6 7.5
v -3 6 -8.5
v -3 6 -9.5
v -3 7 9.5
v -3 7 8.5
v -3 7 -6.5
v -3 7 -8.5
v -3 7 -9.5
v -3 8 -6.5
v -3 8 -8.5
v -2 0 -8.5
v -2 0 -9.5
v -2 1 8.5
v -2 1 7.5
v -2 1 -8.5
v -2 1 -9.5
v -2 2 8.5
v -2 2 7.5
v -2 2 6.5
v -2 6 8.5
v -2 6 7.5
v -2 6 6.5
v -2 7 8.5
v -2 7 7.5
v -2 7 -8.5
v -2 7 -9.5
v -2 8 -8.5
v -2 8 -9.5
v 2 2 9.5
v 2 2 7.5
v 2 6 9.5
v 2 6 7.5
v -2 2 9.5
v -2 2 7.5
v -2 6 9.5
v -2 6 7.5
v 2 0 -8.5
v 2 0 -9.5
v 2 1 8.5
v 2 1 7.5
v 2 1 -8.5
v 2 1 -9.5
v 2 2 8.5
v 2 2 7.5
v 2 2 6.5
v 2 6 8.5
v 2 6 7.5
v 2 6 6.5
v 2 7 8.5
v 2 7 7.5
v 2 7 -8.5
v 2 7 -9.5
v 2 8 -8.5
v 2 8 -9.5
v 3 0 -6.5
v 3 0 -8.5
v 3 1 9.5
v 3 1 8.5
v 3 1 -6.5
v 3 1 -8.5
v 3 1 -9.5
v 3 2 8.5
v 3 2 7.5
v 3 2 -8.5
v 3 2 -9.5
v 3 6 8.5
v 3 6 7.5
v 3 6 -8.5
v 3 6 -9.5
v 3 7 9.5
v 3 7 8.5
v 3 7 -6.5
v 3 7 -8.5
v 3 7 -9.5
v 3 8 -6.5
v 3 8 -8.5
v 4 0 6.5
v 4 0 -6.5
v 4 1 5.5
v 4 1 -6.5
v 4 1 -8.5
v 4 2 -6.5
v 4 2 -8.5
v 4 2 -9.5
v 4 3 3.5
v 4 3 -7.5
v 4 4 3.5
v 4 4 -7.5
v 4 6 -6.5
v 4 6 -8.5
v 4 6 -9.5
v 4 7 5.5
v 4 7 -6.5
v 4 7 -8.5
v 4 8 6.5
v 4 8 -6.5
v -3 1 9.5
v -3 7 9.5
v -2 2 9.5
v -2 6 9.5
v 2 2 9.5
v 2 6 9.5
v 3 1 9.5
v 3 7 9.5
v -2 2 7.5
v -2 6 7.5
v 2 2 7.5
v 2 6 7.5
v -4 0 6.5
v -4 8 6.5
v -3 1 6.5
v -3 7 6.5
v -2 2 6.5
v -2 6 6.5
v 2 2 6.5
v 2 6 6.5
v 3 1 6.5
v 3 7 6.5
v 4 0 6.5
v 4 8 6.5
v -3 1 8.5
v -3 2 8.5
v -3 6 8.5
v -3 7 8.5
v -2 1 8.5
v -2 2 8.5
v -2 6 8.5
v -2 7 8.5
v 2 1 8.5
v 2 2 8.5
v 2 6 8.5
v 2 7 8.5
v 3 1 8.5
v 3 2 8.5
v 3 6 8.5
v 3 7 8.5
v -3 2 7.5
v -3 6 7.5
v -2 1 7.5
v -2 2 7.5
v -2 6 7.5
v -2 7 7.5
v 2 1 7.5
v 2 2 7.5
v 2 6 7.5
v 2 7 7.5
v 3 2 7.5
v 3 6 7.5
v -4 0 -6.5
v -4 1 -6.5
v -4 7 -6.5
v -4 8 -6.5
v -3 0 -6.5
v -3 1 -6.5
v -3 7 -6.5
v -3 8 -6.5
v 3 0 -6.5
v 3 1 -6.5
v 3 7 -6.5
v 3 8 -6.5
v 4 0 -6.5
v 4 1 -6.5
v 4 7 -6.5
v 4 8 -6.5
v -4 1 -8.5
v -4 2 -8.5
v -4 6 -8.5
v -4 7 -8.5
v -3 0 -8.5
v -3 1 -8.5
v -3 2 -8.5
v -3 6 -8.5
v -3 7 -8.5
v -3 8 -8.5
v -2 0 -8.5
v -2 1 -8.5
v -2 7 -8.5
v -2 8 -8.5
v 2 0 -8.5
v 2 1 -8.5
v 2 7 -8.5
v 2 8 -8.5
v 3 0 -8.5
v 3 1 -8.5
v 3 2 -8.5
v 3 6 -8.5
v 3 7 -8.5
v 3 8 -8.5
v 4 1 -8.5
v 4 2 -8.5
v 4 6 -8.5
v 4 7 -8.5
v -4 2 -9.5
v -4 6 -9.5
v -3 1 -9.5
v -3 2 -9.5
v -3 6 -9.5
v -3 7 -9.5
v -2 0 -9.5
v -2 1 -9.5
v -2 2 -9.5
v -2 6 -9.5
v -2 7 -9.5
v -2 8 -9.5
v -1 3 -9.5
v -1 5 -9.5
v 1 3 -9.5
v 1 5 -9.5
v 2 0 -9.5
v 2 1 -9.5
v 2 2 -9.5
v 2 6 -9.5
v 2 7 -9.5
v 2 8 -9.5
v 3 1 -9.5
v 3 2 -9.5
v 3 6 -9.5
v 3 7 -9.5
v 4 2 -9.5
v 4 6 -9.5
v -4 0 6.5
v 4 0 6.5
v -3 0 5.5
v 3 0 5.5
v -4 0 -6.5
v -3 0 -6.5
v -2 0 -6.5
v 2 0 -6.5
v 3 0 -6.5
v 4 0 -6.5
v -3 0 -8.5
v -2 0 -8.5
v 2 0 -8.5
v 3 0 -8.5
v -2 0 -9.5
v 2 0 -9.5
v -3 1 9.5
v 3 1 9.5
v -3 1 8.5
v -2 1 8.5
v 2 1 8.5
v 3 1 8.5
v -2 1 7.5
v 2 1 7.5
v -4 1 -6.5
v -3 1 -6.5
v 3 1 -6.5
v 4 1 -6.5
v -4 1 -8.5
v -3 1 -8.5
v -2 1 -8.5
v 2 1 -8.5
v 3 1 -8.5
v 4 1 -8.5
v -3 1 -9.5
v -2 1 -9.5
v 2 1 -9.5
v 3 1 -9.5
v -3 2 8.5
v -2 2 8.5
v 2 2 8.5
v 3 2 8.5
v -3 2 7.5
v -2 2 7.5
v 2 2 7.5
v 3 2 7.5
v -2 2 6.5
v 2 2 6.5
v -4 2 -8.5
v -3 2 -8.5
v 3 2 -8.5
v 4 2 -8.5
v -4 2 -9.5
v -3 2 -9.5
v 3 2 -9.5
v 4 2 -9.5
v -2 6 9.5
v 2 6 9.5
v -2 6 7.5
v 2 6 7.5
v -2 2 9.5
v 2 2 9.5
v -2 2 7.5
v 2 2 7.5
v -3 6 8.5
v -2 6 8.5
v 2 6 8.5
v 3 6 8.5
v -3 6 7.5
v -2 6 7.5
v 2 6 7.5
v 3 6 7.5
v -2 6 6.5
v 2 6 6.5
v -4 6 -8.5
v -3 6 -8.5
v 3 6 -8.5
v 4 6 -8.5
v -4 6 -9.5
v -3 6 -9.5
v 3 6 -9.5
v 4 6 -9.5
v -3 7 9.5
v 3 7 9.5
v -3 7 8.5
v -2 7 8.5
v 2 7 8.5
v 3 7 8.5
v -2 7 7.5
v 2 7 7.5
v -4 7 -6.5
v -3 7 -6.5
v 3 7 -6.5
v 4 7 -6.5
v -4 7 -8.5
v -3 7 -8.5
v -2 7 -8.5
v 2 7 -8.5
v 3 7 -8.5
v 4 7 -8.5
v -3 7 -9.5
v -2 7 -9.5
v 2 7 -9.5
v 3 7 -9.5
v -4 8 6.5
v 4 8 6.5
v -3 8 5.5
v 3 8 5.5
v -4 8 -6.5
v -3 8 -6.5
v -2 8 -6.5
v 2 8 -6.5
v 3 8 -6.5
v 4 8 -6.5
v -3 8 -8.5
v -2 8 -8.5
v 2 8 -8.5
v 3 8 -8.5
v -2 8 -9.5
v 2 8 -9.5

# faces
f 3/3/1 2/3/1 1/3/1
f 4/3/1 2/3/1 3/3/1
f 6/4/1 4/4/1 3/4/1
f 6/4/1 5/4/1 4/4/1
f 8/4/1 6/4/1 3/4/1
f 9/4/1 6/4/1 8/4/1
f 10/4/1 8/4/1 3/4/1
f 10/1/1 9/1/1 8/1/1
f 11/4/1 6/4/1 9/4/1
f 11/1/1 9/1/1 10/1/1
f 12/4/1 11/4/1 10/4/1
f 13/3/1 7/3/1 6/3/1
f 13/4/1 11/4/1 12/4/1
f 13/4/1 6/4/1 11/4/1
f 14/3/1 7/3/1 13/3/1
f 15/3/1 3/3/1 1/3/1
f 15/4/1 12/4/1 10/4/1
f 15/4/1 10/4/1 3/4/1
f 16/2/1 13/2/1 12/2/1
f 16/4/1 12/4/1 15/4/1
f 17/2/1 13/2/1 16/2/1
f 18/3/1 15/3/1 1/3/1
f 18/3/1 16/3/1 15/3/1
f 19/3/1 16/3/1 18/3/1
f 24/2/1 21/2/1 20/2/1
f 25/2/1 21/2/1 24/2/1
f 27/2/1 23/2/1 22/2/1
f 29/2/1 26/2/1 25/2/1
f 30/2/1 26/2/1 29/2/1
f 31/2/1 28/2/1 27/2/1
f 31/2/1 27/2/1 22/2/1
f 32/2/1 28/2/1 31/2/1
f 35/2/1 31/2/1 22/2/1
f 36/2/1 31/2/1 35/2/1
f 38/2/1 34/2/1 33/2/1
f 39/2/1 34/2/1 38/2/1
f 40/2/1 38/2/1 37/2/1
f 41/2/1 38/2/1 40/2/1
f 46/3/1 43/3/1 42/3/1
f 47/3/1 43/3/1 46/3/1
f 48/2/1 45/2/1 44/2/1
f 49/2/1 45/2/1 48/2/1
f 52/2/1 50/2/1 49/2/1
f 53/2/1 50/2/1 52/2/1
f 54/2/1 52/2/1 51/2/1
f 55/2/1 52/2/1 54/2/1
f 58/3/1 57/3/1 56/3/1
f 59/3/1 57/3/1 58/3/1
f 62/2/1 61/2/1 60/2/1
f 63/2/1 61/2/1 62/2/1
f 64/2/2 65/2/2 66/2/2
f 66/2/2 65/2/2 67/2/2
f 68/3/2 69/3/2 72/3/2
f 72/3/2 69/3/2 73/3/2
f 70/2/2 71/2/2 74/2/2
f 74/2/2 71/2/2 75/2/2
f 75/2/2 76/2/2 78/2/2
f 78/2/2 76/2/2 79/2/2
f 77/2/2 78/2/2 80/2/2
f 80/2/2 78/2/2 81/2/2
f 82/3/2 83/3/2 84/3/2
f 84/3/2 83/3/2 85/3/2
f 86/2/2 87/2/2 90/2/2
f 90/2/2 87/2/2 91/2/2
f 88/2/2 89/2/2 93/2/2
f 91/2/2 92/2/2 95/2/2
f 95/2/2 92/2/2 96/2/2
f 93/2/2 94/2/2 97/2/2
f 88/2/2 93/2/2 97/2/2
f 97/2/2 94/2/2 98/2/2
f 88/2/2 97/2/2 101/2/2
f 101/2/2 97/2/2 102/2/2
f 99/2/2 100/2/2 104/2/2
f 104/2/2 100/2/2 105/2/2
f 103/2/2 104/2/2 106/2/2
f 106/2/2 104/2/2 107/2/2
f 108/3/2 109/3/2 110/3/2
f 110/3/2 109/3/2 111/3/2
f 110/4/2 111/4/2 113/4/2
f 111/2/2 112/2/2 113/2/2
f 113/2/2 112/2/2 114/2/2
f 110/4/2 113/4/2 116/4/2
f 113/4/2 114/4/2 116/4/2
f 116/4/2 114/4/2 117/4/2
f 110/4/2 116/4/2 118/4/2
f 116/1/2 117/1/2 118/1/2
f 117/4/2 114/4/2 119/4/2
f 118/1/2 117/1/2 119/1/2
f 118/4/2 119/4/2 120/4/2
f 114/3/2 115/3/2 121/3/2
f 120/4/2 119/4/2 121/4/2
f 119/4/2 114/4/2 121/4/2
f 121/3/2 115/3/2 122/3/2
f 108/3/2 110/3/2 123/3/2
f 118/4/2 120/4/2 123/4/2
f 110/4/2 118/4/2 123/4/2
f 120/2/2 121/2/2 124/2/2
f 123/4/2 120/4/2 124/4/2
f 124/2/2 121/2/2 125/2/2
f 108/3/2 123/3/2 126/3/2
f 123/3/2 124/3/2 126/3/2
f 126/3/2 124/3/2 127/3/2
f 130/2/3 129/2/3 128/2/3
f 131/2/3 129/2/3 130/2/3
f 132/2/3 130/2/3 128/2/3
f 133/2/3 129/2/3 131/2/3
f 134/2/3 132/2/3 128/2/3
f 134/2/3 133/2/3 132/2/3
f 135/2/3 129/2/3 133/2/3
f 135/2/3 133/2/3 134/2/3
f 138/2/3 137/2/3 136/2/3
f 139/2/3 137/2/3 138/2/3
f 142/3/3 141/3/3 140/3/3
f 143/3/3 141/3/3 142/3/3
f 144/4/3 143/4/3 142/4/3
f 145/4/3 143/4/3 144/4/3
f 146/4/3 144/4/3 142/4/3
f 147/4/3 143/4/3 145/4/3
f 148/3/3 142/3/3 140/3/3
f 148/4/3 147/4/3 146/4/3
f 148/4/3 146/4/3 142/4/3
f 149/4/3 143/4/3 147/4/3
f 149/4/3 147/4/3 148/4/3
f 149/3/3 141/3/3 143/3/3
f 150/3/3 148/3/3 140/3/3
f 150/3/3 149/3/3 148/3/3
f 151/3/3 141/3/3 149/3/3
f 151/3/3 149/3/3 150/3/3
f 152/2/4 153/2/4 156/2/4
f 156/2/4 153/2/4 157/2/4
f 154/2/4 155/2/4 158/2/4
f 158/2/4 155/2/4 159/2/4
f 160/2/4 161/2/4 164/2/4
f 164/2/4 161/2/4 165/2/4
f 162/2/4 163/2/4 166/2/4
f 166/2/4 163/2/4 167/2/4
f 168/2/4 169/2/4 171/2/4
f 171/2/4 169/2/4 172/2/4
f 170/2/4 171/2/4 174/2/4
f 174/2/4 171/2/4 175/2/4
f 172/2/4 173/2/4 176/2/4
f 176/2/4 173/2/4 177/2/4
f 175/2/4 176/2/4 178/2/4
f 178/2/4 176/2/4 179/2/4
f 180/3/4 181/3/4 184/3/4
f 184/3/4 181/3/4 185/3/4
f 182/3/4 183/3/4 186/3/4
f 186/3/4 183/3/4 187/3/4
f 188/3/4 189/3/4 192/3/4
f 192/3/4 189/3/4 193/3/4
f 190/3/4 191/3/4 194/3/4
f 194/3/4 191/3/4 195/3/4
f 196/4/4 197/4/4 201/4/4
f 201/4/4 197/4/4 202/4/4
f 198/2/4 199/2/4 203/2/4
f 203/2/4 199/2/4 204/2/4
f 200/2/4 201/2/4 206/2/4
f 206/2/4 201/2/4 207/2/4
f 204/2/4 205/2/4 208/2/4
f 208/2/4 205/2/4 209/2/4
f 210/2/4 211/2/4 214/2/4
f 214/2/4 211/2/4 215/2/4
f 212/2/4 213/2/4 218/2/4
f 218/2/4 213/2/4 219/2/4
f 215/2/4 216/2/4 220/2/4
f 220/2/4 216/2/4 221/2/4
f 217/2/4 218/2/4 222/2/4
f 222/2/4 218/2/4 223/2/4
f 224/3/4 225/3/4 227/3/4
f 227/3/4 225/3/4 228/3/4
f 226/2/4 227/2/4 231/2/4
f 227/4/4 228/4/4 232/4/4
f 231/2/4 227/2/4 232/2/4
f 228/2/4 229/2/4 233/2/4
f 232/4/4 228/4/4 233/4/4
f 233/2/4 229/2/4 234/2/4
f 231/4/4 232/4/4 236/4/4
f 232/4/4 233/4/4 236/4/4
f 233/4/4 234/4/4 236/4/4
f 236/4/4 234/4/4 237/4/4
f 231/4/4 236/4/4 238/4/4
f 236/5/4 237/5/4 238/5/4
f 237/4/4 234/4/4 239/4/4
f 238/5/4 237/5/4 239/5/4
f 230/3/4 231/3/4 240/3/4
f 231/4/4 238/4/4 241/4/4
f 240/3/4 231/3/4 241/3/4
f 238/4/4 239/4/4 241/4/4
f 241/4/4 239/4/4 242/4/4
f 239/4/4 234/4/4 243/4/4
f 242/4/4 239/4/4 243/4/4
f 234/3/4 235/3/4 244/3/4
f 243/4/4 234/4/4 244/4/4
f 244/3/4 235/3/4 245/3/4
f 241/2/4 242/2/4 246/2/4
f 242/4/4 243/4/4 247/4/4
f 246/2/4 242/2/4 247/2/4
f 243/2/4 244/2/4 248/2/4
f 247/4/4 243/4/4 248/4/4
f 248/2/4 244/2/4 249/2/4
f 247/3/4 248/3/4 250/3/4
f 250/3/4 248/3/4 251/3/4
f 254/3/5 253/3/5 252/3/5
f 255/3/5 253/3/5 254/3/5
f 256/3/5 254/3/5 252/3/5
f 257/4/5 255/4/5 254/4/5
f 257/3/5 254/3/5 256/3/5
f 258/4/5 255/4/5 257/4/5
f 259/4/5 255/4/5 258/4/5
f 260/3/5 253/3/5 255/3/5
f 260/4/5 255/4/5 259/4/5
f 261/3/5 253/3/5 260/3/5
f 262/2/5 258/2/5 257/2/5
f 263/4/5 259/4/5 258/4/5
f 263/2/5 258/2/5 262/2/5
f 264/2/5 260/2/5 259/2/5
f 264/4/5 259/4/5 263/4/5
f 265/2/5 260/2/5 264/2/5
f 266/3/5 264/3/5 263/3/5
f 267/3/5 264/3/5 266/3/5
f 270/2/5 269/2/5 268/2/5
f 271/2/5 269/2/5 270/2/5
f 272/2/5 269/2/5 271/2/5
f 273/2/5 269/2/5 272/2/5
f 274/2/5 272/2/5 271/2/5
f 275/2/5 272/2/5 274/2/5
f 280/4/5 277/4/5 276/4/5
f 281/4/5 277/4/5 280/4/5
f 284/2/5 279/2/5 278/2/5
f 285/2/5 279/2/5 284/2/5
f 286/2/5 282/2/5 281/2/5
f 287/2/5 282/2/5 286/2/5
f 288/2/5 284/2/5 283/2/5
f 289/2/5 284/2/5 288/2/5
f 294/2/5 291/2/5 290/2/5
f 295/2/5 291/2/5 294/2/5
f 296/2/5 293/2/5 292/2/5
f 297/2/5 293/2/5 296/2/5
f 298/2/5 296/2/5 295/2/5
f 299/2/5 296/2/5 298/2/5
f 304/3/5 301/3/5 300/3/5
f 305/3/5 301/3/5 304/3/5
f 306/3/5 303/3/5 302/3/5
f 307/3/5 303/3/5 306/3/5
f 310/2/5 309/2/5 308/2/5
f 311/2/5 309/2/5 310/2/5
f 312/2/6 313/2/6 314/2/6
f 314/2/6 313/2/6 315/2/6
f 316/2/6 317/2/6 320/2/6
f 320/2/6 317/2/6 321/2/6
f 318/2/6 319/2/6 322/2/6
f 322/2/6 319/2/6 323/2/6
f 321/2/6 322/2/6 324/2/6
f 324/2/6 322/2/6 325/2/6
f 326/3/6 327/3/6 330/3/6
f 330/3/6 327/3/6 331/3/6
f 328/3/6 329/3/6 332/3/6
f 332/3/6 329/3/6 333/3/6
f 334/2/6 335/2/6 336/2/6
f 336/2/6 335/2/6 337/2/6
f 337/2/6 335/2/6 338/2/6
f 338/2/6 335/2/6 339/2/6
f 337/2/6 338/2/6 340/2/6
f 340/2/6 338/2/6 341/2/6
f 342/2/6 343/2/6 346/2/6
f 346/2/6 343/2/6 347/2/6
f 344/2/6 345/2/6 350/2/6
f 350/2/6 345/2/6 351/2/6
f 347/2/6 348/2/6 352/2/6
f 352/2/6 348/2/6 353/2/6
f 349/2/6 350/2/6 354/2/6
f 354/2/6 350/2/6 355/2/6
f 356/3/6 357/3/6 358/3/6
f 358/3/6 357/3/6 359/3/6
f 356/3/6 358/3/6 360/3/6
f 358/4/6 359/4/6 361/4/6
f 360/3/6 358/3/6 361/3/6
f 361/4/6 359/4/6 362/4/6
f 362/4/6 359/4/6 363/4/6
f 359/3/6 357/3/6 364/3/6
f 363/4/6 359/4/6 364/4/6
f 364/3/6 357/3/6 365/3/6
f 361/2/6 362/2/6 366/2/6
f 362/4/6 363/4/6 367/4/6
f 366/2/6 362/2/6 367/2/6
f 363/2/6 364/2/6 368/2/6
f 367/4/6 363/4/6 368/4/6
f 368/2/6 364/2/6 369/2/6
f 367/3/6 368/3/6 370/3/6
f 370/3/6 368/3/6 371/3/6
