# MagicaVoxel @ Ephtracy

# group
g FishSide

# material
mtllib FishSide.mtl
usemtl palette

# normals
vn -1 0 0
vn 1 0 0
vn 0 0 1
vn 0 0 -1
vn 0 -1 0
vn 0 1 0

# texcoords
vt 0.974609 0.5
vt 0.978516 0.5

# verts
v -2.5 0 8
v -2.5 0 6
v -2.5 0 4
v -2.5 0 1
v -2.5 0 -1
v -2.5 0 -4
v -2.5 0 -6
v -2.5 0 -8
v -2.5 5 8
v -2.5 5 6
v -2.5 5 4
v -2.5 5 1
v -2.5 5 -1
v -2.5 5 -4
v -2.5 5 -6
v -2.5 5 -8
v -1.5 0 8
v -1.5 0 6
v -1.5 0 4
v -1.5 0 1
v -1.5 0 -1
v -1.5 0 -4
v -1.5 0 -6
v -1.5 0 -8
v -1.5 4 8
v -1.5 4 6
v -1.5 4 4
v -1.5 4 1
v -1.5 4 -1
v -1.5 4 -4
v -1.5 4 -6
v -1.5 4 -8
v 2.5 4 8
v 2.5 4 6
v 2.5 4 4
v 2.5 4 1
v 2.5 4 -1
v 2.5 4 -4
v 2.5 4 -6
v 2.5 4 -8
v 2.5 5 8
v 2.5 5 6
v 2.5 5 4
v 2.5 5 1
v 2.5 5 -1
v 2.5 5 -4
v 2.5 5 -6
v 2.5 5 -8
v -2.5 0 8
v -2.5 5 8
v -1.5 0 8
v -1.5 4 8
v 2.5 4 8
v 2.5 5 8
v -2.5 0 -8
v -2.5 5 -8
v -1.5 0 -8
v -1.5 4 -8
v 2.5 4 -8
v 2.5 5 -8
v -2.5 0 8
v -1.5 0 8
v -2.5 0 6
v -1.5 0 6
v -2.5 0 4
v -1.5 0 4
v -2.5 0 1
v -1.5 0 1
v -2.5 0 -1
v -1.5 0 -1
v -2.5 0 -4
v -1.5 0 -4
v -2.5 0 -6
v -1.5 0 -6
v -2.5 0 -8
v -1.5 0 -8
v -1.5 4 8
v 2.5 4 8
v -1.5 4 6
v 2.5 4 6
v -1.5 4 4
v 2.5 4 4
v -1.5 4 1
v 2.5 4 1
v -1.5 4 -1
v 2.5 4 -1
v -1.5 4 -4
v 2.5 4 -4
v -1.5 4 -6
v 2.5 4 -6
v -1.5 4 -8
v 2.5 4 -8
v -2.5 5 8
v 2.5 5 8
v -2.5 5 6
v 2.5 5 6
v -2.5 5 4
v 2.5 5 4
v -2.5 5 1
v 2.5 5 1
v -2.5 5 -1
v 2.5 5 -1
v -2.5 5 -4
v 2.5 5 -4
v -2.5 5 -6
v 2.5 5 -6
v -2.5 5 -8
v 2.5 5 -8

# faces
f 9/1/1 2/1/1 1/1/1
f 10/2/1 3/2/1 2/2/1
f 10/1/1 2/1/1 9/1/1
f 11/1/1 4/1/1 3/1/1
f 11/2/1 3/2/1 10/2/1
f 12/2/1 5/2/1 4/2/1
f 12/1/1 4/1/1 11/1/1
f 13/1/1 6/1/1 5/1/1
f 13/2/1 5/2/1 12/2/1
f 14/2/1 7/2/1 6/2/1
f 14/1/1 6/1/1 13/1/1
f 15/1/1 8/1/1 7/1/1
f 15/2/1 7/2/1 14/2/1
f 16/1/1 8/1/1 15/1/1
f 17/1/2 18/1/2 25/1/2
f 18/2/2 19/2/2 26/2/2
f 25/1/2 18/1/2 26/1/2
f 19/1/2 20/1/2 27/1/2
f 26/2/2 19/2/2 27/2/2
f 20/2/2 21/2/2 28/2/2
f 27/1/2 20/1/2 28/1/2
f 21/1/2 22/1/2 29/1/2
f 28/2/2 21/2/2 29/2/2
f 22/2/2 23/2/2 30/2/2
f 29/1/2 22/1/2 30/1/2
f 23/1/2 24/1/2 31/1/2
f 30/2/2 23/2/2 31/2/2
f 31/1/2 24/1/2 32/1/2
f 33/1/2 34/1/2 41/1/2
f 34/2/2 35/2/2 42/2/2
f 41/1/2 34/1/2 42/1/2
f 35/1/2 36/1/2 43/1/2
f 42/2/2 35/2/2 43/2/2
f 36/2/2 37/2/2 44/2/2
f 43/1/2 36/1/2 44/1/2
f 37/1/2 38/1/2 45/1/2
f 44/2/2 37/2/2 45/2/2
f 38/2/2 39/2/2 46/2/2
f 45/1/2 38/1/2 46/1/2
f 39/1/2 40/1/2 47/1/2
f 46/2/2 39/2/2 47/2/2
f 47/1/2 40/1/2 48/1/2
f 51/1/3 50/1/3 49/1/3
f 52/1/3 50/1/3 51/1/3
f 53/1/3 50/1/3 52/1/3
f 54/1/3 50/1/3 53/1/3
f 55/1/4 56/1/4 57/1/4
f 57/1/4 56/1/4 58/1/4
f 58/1/4 56/1/4 59/1/4
f 59/1/4 56/1/4 60/1/4
f 63/1/5 62/1/5 61/1/5
f 64/1/5 62/1/5 63/1/5
f 65/2/5 64/2/5 63/2/5
f 66/2/5 64/2/5 65/2/5
f 67/1/5 66/1/5 65/1/5
f 68/1/5 66/1/5 67/1/5
f 69/2/5 68/2/5 67/2/5
f 70/2/5 68/2/5 69/2/5
f 71/1/5 70/1/5 69/1/5
f 72/1/5 70/1/5 71/1/5
f 73/2/5 72/2/5 71/2/5
f 74/2/5 72/2/5 73/2/5
f 75/1/5 74/1/5 73/1/5
f 76/1/5 74/1/5 75/1/5
f 79/1/5 78/1/5 77/1/5
f 80/1/5 78/1/5 79/1/5
f 81/2/5 80/2/5 79/2/5
f 82/2/5 80/2/5 81/2/5
f 83/1/5 82/1/5 81/1/5
f 84/1/5 82/1/5 83/1/5
f 85/2/5 84/2/5 83/2/5
f 86/2/5 84/2/5 85/2/5
f 87/1/5 86/1/5 85/1/5
f 88/1/5 86/1/5 87/1/5
f 89/2/5 88/2/5 87/2/5
f 90/2/5 88/2/5 89/2/5
f 91/1/5 90/1/5 89/1/5
f 92/1/5 90/1/5 91/1/5
f 93/1/6 94/1/6 95/1/6
f 95/1/6 94/1/6 96/1/6
f 95/2/6 96/2/6 97/2/6
f 97/2/6 96/2/6 98/2/6
f 97/1/6 98/1/6 99/1/6
f 99/1/6 98/1/6 100/1/6
f 99/2/6 100/2/6 101/2/6
f 101/2/6 100/2/6 102/2/6
f 101/1/6 102/1/6 103/1/6
f 103/1/6 102/1/6 104/1/6
f 103/2/6 104/2/6 105/2/6
f 105/2/6 104/2/6 106/2/6
f 105/1/6 106/1/6 107/1/6
f 107/1/6 106/1/6 108/1/6
